<svg xmlns="http://www.w3.org/2000/svg" width="760" height="560" viewBox="0 0 760 560">
  <defs>
    <style>
      .axis {
        fill: none;
        stroke: #252525;
        stroke-width: 4;
        stroke-linecap: round;
      }
      .curve {
        fill: none;
        stroke: #262324;
        stroke-width: 6;
        stroke-linecap: round;
        stroke-linejoin: round;
      }
      .tick {
        stroke: #252525;
        stroke-width: 4;
        stroke-linecap: round;
      }
      .label {
        font-family: Arial, Helvetica, sans-serif;
        fill: #000000;
      }
      .cell-label {
        font-family: Arial, Helvetica, sans-serif;
        font-weight: 700;
        fill: #252525;
      }
    </style>
  </defs>

  <rect width="100%" height="100%" fill="#ffffff"/>

  <path class="axis" d="M105 420 H680"/>
  <path class="axis" d="M105 420 V82"/>

  <path class="curve"
        d="M105 405
           C145 405 164 405 179 384
           C205 348 214 212 249 118
           C253 107 263 107 268 118
           C304 211 311 349 337 384
           C356 407 378 405 390 384
           C411 348 419 250 443 194
           C447 185 457 185 461 194
           C485 250 493 348 514 384
           C526 405 548 407 565 384
           C591 349 601 236 632 153
           C637 141 648 141 653 153
           C684 236 693 349 719 385
           C735 406 751 405 756 405"/>

  <line class="tick" x1="258" y1="420" x2="258" y2="427"/>
  <line class="tick" x1="452" y1="420" x2="452" y2="427"/>
  <line class="tick" x1="642" y1="420" x2="642" y2="427"/>

  <text class="label" x="258" y="475" text-anchor="middle" font-size="43">0.25</text>
  <text class="label" x="452" y="475" text-anchor="middle" font-size="43">0.50</text>
  <text class="label" x="642" y="475" text-anchor="middle" font-size="43">0.70</text>

  <text class="label" x="393" y="536" text-anchor="middle" font-size="46">Eccentricity</text>
  <text class="label" x="58" y="256" text-anchor="middle" font-size="43" transform="rotate(-90 58 256)">Distribution</text>

  <circle cx="258" cy="58" r="24" fill="#3747a6"/>
  <circle cx="452" cy="102" r="24" fill="#43a36f"/>
  <circle cx="642" cy="58" r="24" fill="#ee1b24"/>

  <text class="cell-label" x="258" y="33" text-anchor="middle" font-size="25">Lymphocytes</text>
  <text class="cell-label" x="452" y="76" text-anchor="middle" font-size="25">Stroma</text>
  <text class="cell-label" x="642" y="33" text-anchor="middle" font-size="25">Tumor cells</text>
</svg>
