<svg xmlns="http://www.w3.org/2000/svg" width="360" height="360" viewBox="0 0 360 360">
  <defs>
    <style>
      .line { fill: none; stroke: #3a3a3a; stroke-width: 9; stroke-linecap: round; stroke-linejoin: round; }
      .thin { fill: none; stroke: #3a3a3a; stroke-width: 6; stroke-linecap: round; stroke-linejoin: round; }
      .blue { fill: none; stroke: #176fb8; stroke-width: 9; stroke-linecap: round; stroke-linejoin: round; }
      .green { fill: none; stroke: #4b8239; stroke-width: 10; stroke-linecap: round; stroke-linejoin: round; }
      .red { fill: none; stroke: #c63a49; stroke-width: 10; stroke-linecap: round; stroke-linejoin: round; }
      .grayfill { fill: #f4f5f6; stroke: #3a3a3a; stroke-width: 8; }
      .bluefill { fill: #dcecf8; stroke: #176fb8; stroke-width: 8; }
      .greenfill { fill: #dbead6; stroke: #4b8239; stroke-width: 8; }
      .redfill { fill: #f5d5da; stroke: #c63a49; stroke-width: 8; }
      .text { font-family: Arial, Helvetica, sans-serif; font-weight: 700; fill: #242424; }
      .muted { fill: #6f7478; }
    </style>
    <marker id="arrowBlue" viewBox="0 0 10 10" refX="8" refY="5" markerWidth="7" markerHeight="7" orient="auto-start-reverse">
      <path d="M 0 0 L 10 5 L 0 10 z" fill="#176fb8"/>
    </marker>
    <marker id="arrowDark" viewBox="0 0 10 10" refX="8" refY="5" markerWidth="7" markerHeight="7" orient="auto-start-reverse">
      <path d="M 0 0 L 10 5 L 0 10 z" fill="#3a3a3a"/>
    </marker>
  </defs>

  <circle class="grayfill" cx="180" cy="180" r="94"/>
  <path class="line" d="M180 180 V116"/>
  <path class="line" d="M180 180 L224 218"/>
  <path class="thin" d="M263 111 C289 149, 292 198, 267 238" marker-end="url(#arrowDark)"/>
  <path class="thin" d="M97 249 C68 213, 63 165, 85 122" marker-end="url(#arrowDark)"/>
  <circle class="redfill" cx="112" cy="73" r="28"/>
  <path class="red" d="M101 73 H123"/>
  <path class="red" d="M112 62 V84"/>
  <circle class="greenfill" cx="284" cy="86" r="28"/>
  <path class="green" d="M270 87 L280 98 L299 76"/>
  <circle class="bluefill" cx="84" cy="296" r="28"/>
  <path class="blue" d="M69 296 H99"/>
  <path class="blue" d="M84 281 V311"/>
  <text class="text" x="180" y="338" text-anchor="middle" font-size="45">5Y</text>

</svg>
