<svg xmlns="http://www.w3.org/2000/svg" width="900" height="380" viewBox="0 0 900 380">

    <defs>
      <marker id="arrow" viewBox="0 0 10 10" refX="8" refY="5"
              markerWidth="8" markerHeight="8" orient="auto-start-reverse">
        <path d="M 0 0 L 10 5 L 0 10 z" fill="#166fb8"/>
      </marker>
      <filter id="shadow" x="-20%" y="-20%" width="140%" height="150%">
        <feDropShadow dx="0" dy="8" stdDeviation="7" flood-color="#000" flood-opacity="0.22"/>
      </filter>
      <linearGradient id="frontGray" x1="0" x2="1" y1="0" y2="1">
        <stop offset="0%" stop-color="#e8e8e8"/>
        <stop offset="45%" stop-color="#9f9f9f"/>
        <stop offset="100%" stop-color="#3e3e3e"/>
      </linearGradient>
      <linearGradient id="topGray" x1="0" x2="1" y1="0" y2="1">
        <stop offset="0%" stop-color="#f6f6f6"/>
        <stop offset="100%" stop-color="#6e6e6e"/>
      </linearGradient>
      <linearGradient id="sideGray" x1="0" x2="1" y1="0" y2="1">
        <stop offset="0%" stop-color="#b5b5b5"/>
        <stop offset="100%" stop-color="#4d4d4d"/>
      </linearGradient>
      <radialGradient id="tumor" cx="45%" cy="40%" r="58%">
        <stop offset="0%" stop-color="#ff74be"/>
        <stop offset="55%" stop-color="#d91773"/>
        <stop offset="100%" stop-color="#821047"/>
      </radialGradient>
    </defs>
    
<g filter="url(#shadow)">
<clipPath id="topClip"><polygon points="88,116 160,74 420,74 348,116" /></clipPath>
<clipPath id="frontClip"><polygon points="88,116 348,116 348,244 88,244" /></clipPath>
<clipPath id="sideClip"><polygon points="348,116 420,74 420,202 348,244" /></clipPath>
<polygon points="88,116 160,74 420,74 348,116" fill="url(#topGray)" stroke="#161616" stroke-width="5" stroke-linejoin="round"/>
<polygon points="348,116 420,74 420,202 348,244" fill="url(#sideGray)" stroke="#161616" stroke-width="5" stroke-linejoin="round"/>
<polygon points="88,116 348,116 348,244 88,244" fill="url(#frontGray)" stroke="#161616" stroke-width="5" stroke-linejoin="round"/>
<g clip-path="url(#topClip)">
<ellipse cx="388.7" cy="109.1" rx="31.9" ry="13.0" transform="rotate(-16.8 388.7 109.1)" fill="#1f1f1f" opacity="0.66"/>
<ellipse cx="278.2" cy="81.1" rx="22.7" ry="13.9" transform="rotate(-27.8 278.2 81.1)" fill="#686868" opacity="0.49"/>
<ellipse cx="280.8" cy="94.2" rx="17.2" ry="10.3" transform="rotate(12.7 280.8 94.2)" fill="#686868" opacity="0.47"/>
<ellipse cx="296.4" cy="115.5" rx="24.8" ry="4.8" transform="rotate(5.1 296.4 115.5)" fill="#1f1f1f" opacity="0.37"/>
<ellipse cx="115.8" cy="85.7" rx="31.9" ry="7.1" transform="rotate(-17.0 115.8 85.7)" fill="#eeeeee" opacity="0.33"/>
<ellipse cx="95.8" cy="110.1" rx="34.3" ry="6.2" transform="rotate(-18.4 95.8 110.1)" fill="#1f1f1f" opacity="0.63"/>
<ellipse cx="293.1" cy="87.1" rx="30.1" ry="7.4" transform="rotate(15.5 293.1 87.1)" fill="#3c3c3c" opacity="0.69"/>
<ellipse cx="178.9" cy="117.0" rx="16.1" ry="8.1" transform="rotate(14.5 178.9 117.0)" fill="#1f1f1f" opacity="0.58"/>
<ellipse cx="418.7" cy="103.3" rx="21.0" ry="5.2" transform="rotate(7.5 418.7 103.3)" fill="#eeeeee" opacity="0.37"/>
<ellipse cx="145.2" cy="81.3" rx="14.1" ry="11.8" transform="rotate(-14.5 145.2 81.3)" fill="#686868" opacity="0.58"/>
<ellipse cx="221.5" cy="96.7" rx="31.7" ry="11.3" transform="rotate(23.5 221.5 96.7)" fill="#3c3c3c" opacity="0.33"/>
<ellipse cx="239.1" cy="90.0" rx="13.9" ry="11.5" transform="rotate(-28.5 239.1 90.0)" fill="#686868" opacity="0.56"/>
<ellipse cx="405.5" cy="114.2" rx="29.3" ry="11.9" transform="rotate(-21.4 405.5 114.2)" fill="#eeeeee" opacity="0.50"/>
<ellipse cx="92.0" cy="73.3" rx="29.3" ry="9.3" transform="rotate(-25.5 92.0 73.3)" fill="#686868" opacity="0.66"/>
<ellipse cx="227.1" cy="77.9" rx="14.6" ry="6.4" transform="rotate(25.1 227.1 77.9)" fill="#1f1f1f" opacity="0.41"/>
<ellipse cx="272.3" cy="119.9" rx="28.8" ry="8.5" transform="rotate(-34.8 272.3 119.9)" fill="#3c3c3c" opacity="0.64"/>
<ellipse cx="191.3" cy="122.9" rx="14.5" ry="12.3" transform="rotate(-20.5 191.3 122.9)" fill="#eeeeee" opacity="0.41"/>
<ellipse cx="312.6" cy="77.3" rx="19.2" ry="12.8" transform="rotate(-8.9 312.6 77.3)" fill="#686868" opacity="0.45"/>
<ellipse cx="365.9" cy="97.0" rx="14.6" ry="9.8" transform="rotate(-20.2 365.9 97.0)" fill="#1f1f1f" opacity="0.59"/>
<ellipse cx="263.7" cy="121.8" rx="26.2" ry="13.7" transform="rotate(15.0 263.7 121.8)" fill="#3c3c3c" opacity="0.40"/>
<ellipse cx="290.3" cy="124.2" rx="12.1" ry="13.8" transform="rotate(-20.2 290.3 124.2)" fill="#3c3c3c" opacity="0.55"/>
<ellipse cx="222.8" cy="104.5" rx="27.1" ry="7.6" transform="rotate(-15.2 222.8 104.5)" fill="#1f1f1f" opacity="0.64"/>
<ellipse cx="133.7" cy="105.6" rx="35.4" ry="9.6" transform="rotate(-7.4 133.7 105.6)" fill="#1f1f1f" opacity="0.63"/>
<ellipse cx="395.6" cy="77.0" rx="34.7" ry="7.2" transform="rotate(19.2 395.6 77.0)" fill="#686868" opacity="0.48"/>
<ellipse cx="382.7" cy="92.5" rx="28.2" ry="7.5" transform="rotate(33.4 382.7 92.5)" fill="#686868" opacity="0.29"/>
<ellipse cx="127.2" cy="84.9" rx="15.7" ry="11.8" transform="rotate(-34.5 127.2 84.9)" fill="#686868" opacity="0.43"/>
<ellipse cx="136.7" cy="84.4" rx="25.7" ry="6.5" transform="rotate(-7.6 136.7 84.4)" fill="#cfcfcf" opacity="0.58"/>
<ellipse cx="367.2" cy="121.1" rx="25.2" ry="10.5" transform="rotate(34.5 367.2 121.1)" fill="#eeeeee" opacity="0.62"/>
<ellipse cx="115.6" cy="98.6" rx="21.2" ry="5.3" transform="rotate(11.1 115.6 98.6)" fill="#3c3c3c" opacity="0.49"/>
<ellipse cx="205.4" cy="120.9" rx="37.8" ry="10.3" transform="rotate(4.3 205.4 120.9)" fill="#eeeeee" opacity="0.68"/>
<ellipse cx="128.9" cy="86.5" rx="13.0" ry="5.9" transform="rotate(-7.6 128.9 86.5)" fill="#eeeeee" opacity="0.50"/>
<ellipse cx="189.9" cy="97.4" rx="16.7" ry="13.1" transform="rotate(-26.0 189.9 97.4)" fill="#1f1f1f" opacity="0.53"/>
<ellipse cx="390.2" cy="119.6" rx="16.4" ry="6.7" transform="rotate(34.8 390.2 119.6)" fill="#686868" opacity="0.32"/>
<ellipse cx="175.6" cy="77.2" rx="19.9" ry="4.8" transform="rotate(-32.2 175.6 77.2)" fill="#1f1f1f" opacity="0.49"/>
<line x1="217.9" y1="119.0" x2="239.5" y2="103.0" stroke="#f4f4f4" stroke-width="2.5" opacity="0.50" stroke-linecap="round"/>
<line x1="191.1" y1="101.7" x2="230.3" y2="88.9" stroke="#f4f4f4" stroke-width="1.8" opacity="0.52" stroke-linecap="round"/>
<line x1="260.1" y1="117.0" x2="231.2" y2="105.5" stroke="#f4f4f4" stroke-width="1.3" opacity="0.40" stroke-linecap="round"/>
<line x1="243.3" y1="118.0" x2="274.8" y2="110.9" stroke="#f4f4f4" stroke-width="1.9" opacity="0.50" stroke-linecap="round"/>
<line x1="327.4" y1="116.7" x2="300.9" y2="109.5" stroke="#f4f4f4" stroke-width="2.6" opacity="0.42" stroke-linecap="round"/>
<line x1="418.0" y1="118.1" x2="381.5" y2="119.9" stroke="#f4f4f4" stroke-width="2.2" opacity="0.54" stroke-linecap="round"/>
<line x1="274.1" y1="92.1" x2="255.4" y2="72.5" stroke="#f4f4f4" stroke-width="2.3" opacity="0.32" stroke-linecap="round"/>
<line x1="257.9" y1="119.1" x2="278.7" y2="120.5" stroke="#f4f4f4" stroke-width="1.4" opacity="0.50" stroke-linecap="round"/>
<line x1="261.2" y1="78.3" x2="241.4" y2="75.8" stroke="#f4f4f4" stroke-width="2.5" opacity="0.42" stroke-linecap="round"/>
<line x1="288.2" y1="120.2" x2="283.0" y2="117.3" stroke="#f4f4f4" stroke-width="2.2" opacity="0.47" stroke-linecap="round"/>
<line x1="146.2" y1="81.4" x2="173.8" y2="82.2" stroke="#f4f4f4" stroke-width="2.0" opacity="0.48" stroke-linecap="round"/>
<line x1="187.0" y1="85.1" x2="166.8" y2="74.9" stroke="#f4f4f4" stroke-width="1.2" opacity="0.47" stroke-linecap="round"/>
<line x1="284.6" y1="95.3" x2="310.2" y2="98.1" stroke="#f4f4f4" stroke-width="1.4" opacity="0.30" stroke-linecap="round"/>
<line x1="117.4" y1="73.3" x2="75.1" y2="64.0" stroke="#f4f4f4" stroke-width="1.6" opacity="0.53" stroke-linecap="round"/>
<line x1="410.4" y1="93.7" x2="447.6" y2="110.0" stroke="#f4f4f4" stroke-width="2.1" opacity="0.46" stroke-linecap="round"/>
<line x1="208.7" y1="75.3" x2="230.3" y2="91.0" stroke="#f4f4f4" stroke-width="1.3" opacity="0.45" stroke-linecap="round"/>
<line x1="331.6" y1="94.7" x2="290.4" y2="100.0" stroke="#f4f4f4" stroke-width="1.4" opacity="0.43" stroke-linecap="round"/>
<line x1="403.3" y1="115.4" x2="366.7" y2="127.5" stroke="#f4f4f4" stroke-width="2.4" opacity="0.52" stroke-linecap="round"/>
<line x1="372.9" y1="114.0" x2="375.3" y2="107.8" stroke="#f4f4f4" stroke-width="1.8" opacity="0.32" stroke-linecap="round"/>
<line x1="298.9" y1="112.1" x2="331.1" y2="100.0" stroke="#f4f4f4" stroke-width="1.4" opacity="0.34" stroke-linecap="round"/>
<line x1="88.2" y1="74.8" x2="63.3" y2="72.7" stroke="#f4f4f4" stroke-width="1.9" opacity="0.44" stroke-linecap="round"/>
<line x1="310.3" y1="104.9" x2="323.2" y2="110.1" stroke="#f4f4f4" stroke-width="2.5" opacity="0.37" stroke-linecap="round"/>
<line x1="398.7" y1="74.9" x2="430.8" y2="76.3" stroke="#f4f4f4" stroke-width="1.9" opacity="0.33" stroke-linecap="round"/>
<line x1="137.2" y1="101.6" x2="166.2" y2="86.9" stroke="#f4f4f4" stroke-width="2.4" opacity="0.55" stroke-linecap="round"/>
<line x1="184.7" y1="77.4" x2="189.5" y2="95.5" stroke="#f4f4f4" stroke-width="2.3" opacity="0.33" stroke-linecap="round"/>
<line x1="116.1" y1="80.4" x2="156.6" y2="66.9" stroke="#f4f4f4" stroke-width="2.2" opacity="0.38" stroke-linecap="round"/>
<line x1="190.3" y1="123.6" x2="220.5" y2="114.5" stroke="#f4f4f4" stroke-width="1.1" opacity="0.28" stroke-linecap="round"/>
<line x1="348.7" y1="110.0" x2="377.1" y2="122.8" stroke="#f4f4f4" stroke-width="1.2" opacity="0.55" stroke-linecap="round"/>
<line x1="116.1" y1="99.5" x2="98.8" y2="91.3" stroke="#f4f4f4" stroke-width="2.0" opacity="0.36" stroke-linecap="round"/>
<line x1="358.0" y1="106.7" x2="400.9" y2="123.1" stroke="#f4f4f4" stroke-width="1.2" opacity="0.52" stroke-linecap="round"/>
<line x1="340.8" y1="86.0" x2="297.2" y2="98.6" stroke="#f4f4f4" stroke-width="2.1" opacity="0.44" stroke-linecap="round"/>
<line x1="110.4" y1="123.8" x2="139.0" y2="134.0" stroke="#f4f4f4" stroke-width="1.8" opacity="0.31" stroke-linecap="round"/>
<line x1="259.3" y1="111.6" x2="276.0" y2="129.9" stroke="#f4f4f4" stroke-width="2.6" opacity="0.46" stroke-linecap="round"/>
<line x1="99.5" y1="105.7" x2="95.2" y2="100.3" stroke="#f4f4f4" stroke-width="1.9" opacity="0.47" stroke-linecap="round"/>
<line x1="362.2" y1="110.6" x2="339.3" y2="125.3" stroke="#f4f4f4" stroke-width="2.0" opacity="0.51" stroke-linecap="round"/>
<line x1="253.9" y1="120.7" x2="281.8" y2="134.5" stroke="#f4f4f4" stroke-width="2.3" opacity="0.46" stroke-linecap="round"/>
<line x1="115.4" y1="120.6" x2="122.7" y2="126.8" stroke="#f4f4f4" stroke-width="1.9" opacity="0.49" stroke-linecap="round"/>
<line x1="288.7" y1="102.6" x2="261.8" y2="94.6" stroke="#f4f4f4" stroke-width="1.3" opacity="0.37" stroke-linecap="round"/>
<line x1="280.5" y1="112.0" x2="316.2" y2="111.2" stroke="#f4f4f4" stroke-width="2.2" opacity="0.40" stroke-linecap="round"/>
<line x1="88.6" y1="88.2" x2="54.1" y2="99.1" stroke="#f4f4f4" stroke-width="2.4" opacity="0.49" stroke-linecap="round"/>
<line x1="136.9" y1="103.5" x2="166.4" y2="107.5" stroke="#f4f4f4" stroke-width="2.6" opacity="0.33" stroke-linecap="round"/>
<line x1="375.2" y1="119.2" x2="353.1" y2="121.0" stroke="#f4f4f4" stroke-width="2.3" opacity="0.28" stroke-linecap="round"/>
</g>
<g clip-path="url(#sideClip)">
<ellipse cx="396.5" cy="116.0" rx="12.8" ry="10.5" transform="rotate(-20.3 396.5 116.0)" fill="#686868" opacity="0.37"/>
<ellipse cx="381.9" cy="92.4" rx="14.1" ry="4.1" transform="rotate(1.6 381.9 92.4)" fill="#3c3c3c" opacity="0.36"/>
<ellipse cx="438.0" cy="210.1" rx="33.2" ry="9.3" transform="rotate(-6.9 438.0 210.1)" fill="#686868" opacity="0.58"/>
<ellipse cx="354.1" cy="75.6" rx="32.9" ry="10.7" transform="rotate(18.4 354.1 75.6)" fill="#eeeeee" opacity="0.39"/>
<ellipse cx="373.1" cy="157.5" rx="37.2" ry="10.1" transform="rotate(30.4 373.1 157.5)" fill="#3c3c3c" opacity="0.71"/>
<ellipse cx="426.9" cy="110.3" rx="14.1" ry="6.4" transform="rotate(-13.0 426.9 110.3)" fill="#1f1f1f" opacity="0.53"/>
<ellipse cx="415.5" cy="117.7" rx="25.6" ry="5.9" transform="rotate(10.2 415.5 117.7)" fill="#eeeeee" opacity="0.54"/>
<ellipse cx="407.1" cy="122.5" rx="20.8" ry="4.2" transform="rotate(10.9 407.1 122.5)" fill="#1f1f1f" opacity="0.55"/>
<ellipse cx="391.7" cy="213.7" rx="18.6" ry="6.6" transform="rotate(13.7 391.7 213.7)" fill="#3c3c3c" opacity="0.65"/>
<ellipse cx="422.5" cy="149.9" rx="22.9" ry="6.3" transform="rotate(-20.1 422.5 149.9)" fill="#686868" opacity="0.75"/>
<ellipse cx="428.9" cy="195.9" rx="19.8" ry="13.6" transform="rotate(11.3 428.9 195.9)" fill="#cfcfcf" opacity="0.48"/>
<ellipse cx="421.1" cy="198.3" rx="24.3" ry="7.1" transform="rotate(-25.3 421.1 198.3)" fill="#3c3c3c" opacity="0.76"/>
<ellipse cx="395.6" cy="120.8" rx="29.9" ry="5.2" transform="rotate(-11.6 395.6 120.8)" fill="#1f1f1f" opacity="0.60"/>
<ellipse cx="430.8" cy="200.7" rx="30.9" ry="12.2" transform="rotate(2.2 430.8 200.7)" fill="#cfcfcf" opacity="0.63"/>
<ellipse cx="361.0" cy="162.4" rx="27.9" ry="7.7" transform="rotate(-4.3 361.0 162.4)" fill="#eeeeee" opacity="0.41"/>
<ellipse cx="426.1" cy="131.2" rx="13.9" ry="13.2" transform="rotate(23.6 426.1 131.2)" fill="#3c3c3c" opacity="0.53"/>
<ellipse cx="435.8" cy="72.5" rx="37.3" ry="13.6" transform="rotate(-30.5 435.8 72.5)" fill="#3c3c3c" opacity="0.68"/>
<ellipse cx="416.4" cy="188.9" rx="27.9" ry="13.0" transform="rotate(-11.0 416.4 188.9)" fill="#cfcfcf" opacity="0.68"/>
<ellipse cx="406.5" cy="126.1" rx="36.6" ry="8.8" transform="rotate(16.0 406.5 126.1)" fill="#1f1f1f" opacity="0.45"/>
<ellipse cx="391.6" cy="88.1" rx="17.2" ry="11.4" transform="rotate(-27.5 391.6 88.1)" fill="#1f1f1f" opacity="0.42"/>
<ellipse cx="411.2" cy="124.3" rx="35.2" ry="10.7" transform="rotate(-23.4 411.2 124.3)" fill="#686868" opacity="0.57"/>
<ellipse cx="375.4" cy="162.9" rx="15.9" ry="6.3" transform="rotate(14.0 375.4 162.9)" fill="#eeeeee" opacity="0.71"/>
<ellipse cx="360.9" cy="90.6" rx="36.0" ry="7.2" transform="rotate(0.1 360.9 90.6)" fill="#3c3c3c" opacity="0.42"/>
<ellipse cx="385.4" cy="115.8" rx="30.7" ry="8.1" transform="rotate(-14.7 385.4 115.8)" fill="#cfcfcf" opacity="0.71"/>
<ellipse cx="417.5" cy="90.3" rx="19.1" ry="5.0" transform="rotate(17.1 417.5 90.3)" fill="#cfcfcf" opacity="0.59"/>
<ellipse cx="390.2" cy="208.3" rx="18.2" ry="9.6" transform="rotate(9.0 390.2 208.3)" fill="#eeeeee" opacity="0.72"/>
<ellipse cx="401.0" cy="92.8" rx="24.5" ry="11.6" transform="rotate(-33.8 401.0 92.8)" fill="#1f1f1f" opacity="0.50"/>
<ellipse cx="394.2" cy="120.8" rx="32.5" ry="8.8" transform="rotate(-3.4 394.2 120.8)" fill="#1f1f1f" opacity="0.43"/>
<ellipse cx="354.0" cy="75.6" rx="28.2" ry="4.7" transform="rotate(-13.0 354.0 75.6)" fill="#3c3c3c" opacity="0.47"/>
<ellipse cx="401.6" cy="177.1" rx="21.2" ry="9.3" transform="rotate(-7.7 401.6 177.1)" fill="#1f1f1f" opacity="0.58"/>
<ellipse cx="437.3" cy="73.7" rx="33.0" ry="12.9" transform="rotate(33.7 437.3 73.7)" fill="#eeeeee" opacity="0.70"/>
<ellipse cx="374.6" cy="206.8" rx="22.2" ry="6.7" transform="rotate(-27.1 374.6 206.8)" fill="#cfcfcf" opacity="0.53"/>
<ellipse cx="359.5" cy="158.1" rx="34.8" ry="13.3" transform="rotate(-29.5 359.5 158.1)" fill="#eeeeee" opacity="0.71"/>
<ellipse cx="364.4" cy="72.7" rx="16.1" ry="10.6" transform="rotate(18.8 364.4 72.7)" fill="#3c3c3c" opacity="0.57"/>
<line x1="412.8" y1="99.1" x2="414.1" y2="106.6" stroke="#f4f4f4" stroke-width="1.6" opacity="0.29" stroke-linecap="round"/>
<line x1="406.5" y1="85.8" x2="363.4" y2="79.1" stroke="#f4f4f4" stroke-width="2.0" opacity="0.41" stroke-linecap="round"/>
<line x1="370.4" y1="215.8" x2="337.2" y2="202.2" stroke="#f4f4f4" stroke-width="1.3" opacity="0.51" stroke-linecap="round"/>
<line x1="405.4" y1="178.5" x2="389.7" y2="160.1" stroke="#f4f4f4" stroke-width="2.2" opacity="0.53" stroke-linecap="round"/>
<line x1="368.1" y1="151.9" x2="352.7" y2="149.4" stroke="#f4f4f4" stroke-width="1.9" opacity="0.55" stroke-linecap="round"/>
<line x1="362.9" y1="189.1" x2="343.2" y2="173.7" stroke="#f4f4f4" stroke-width="2.4" opacity="0.37" stroke-linecap="round"/>
<line x1="349.6" y1="103.6" x2="349.2" y2="91.3" stroke="#f4f4f4" stroke-width="1.2" opacity="0.34" stroke-linecap="round"/>
<line x1="403.2" y1="94.8" x2="377.3" y2="98.2" stroke="#f4f4f4" stroke-width="2.0" opacity="0.46" stroke-linecap="round"/>
<line x1="434.9" y1="176.1" x2="464.8" y2="177.5" stroke="#f4f4f4" stroke-width="1.9" opacity="0.35" stroke-linecap="round"/>
<line x1="434.7" y1="163.4" x2="476.3" y2="167.4" stroke="#f4f4f4" stroke-width="2.4" opacity="0.46" stroke-linecap="round"/>
<line x1="350.3" y1="142.4" x2="327.8" y2="142.9" stroke="#f4f4f4" stroke-width="1.8" opacity="0.54" stroke-linecap="round"/>
<line x1="362.6" y1="186.2" x2="345.3" y2="186.3" stroke="#f4f4f4" stroke-width="2.2" opacity="0.33" stroke-linecap="round"/>
<line x1="431.8" y1="85.1" x2="448.5" y2="82.9" stroke="#f4f4f4" stroke-width="1.5" opacity="0.46" stroke-linecap="round"/>
<line x1="367.7" y1="188.5" x2="370.0" y2="173.5" stroke="#f4f4f4" stroke-width="1.3" opacity="0.31" stroke-linecap="round"/>
<line x1="403.7" y1="166.2" x2="392.2" y2="175.3" stroke="#f4f4f4" stroke-width="2.5" opacity="0.53" stroke-linecap="round"/>
<line x1="386.9" y1="130.8" x2="367.8" y2="125.2" stroke="#f4f4f4" stroke-width="1.3" opacity="0.30" stroke-linecap="round"/>
<line x1="418.8" y1="107.9" x2="435.3" y2="89.9" stroke="#f4f4f4" stroke-width="2.1" opacity="0.39" stroke-linecap="round"/>
<line x1="376.5" y1="203.2" x2="365.5" y2="197.6" stroke="#f4f4f4" stroke-width="2.5" opacity="0.33" stroke-linecap="round"/>
<line x1="409.1" y1="197.0" x2="421.2" y2="181.5" stroke="#f4f4f4" stroke-width="1.7" opacity="0.50" stroke-linecap="round"/>
<line x1="354.1" y1="133.1" x2="371.2" y2="124.5" stroke="#f4f4f4" stroke-width="2.5" opacity="0.51" stroke-linecap="round"/>
<line x1="382.7" y1="192.3" x2="365.8" y2="212.5" stroke="#f4f4f4" stroke-width="2.5" opacity="0.42" stroke-linecap="round"/>
<line x1="418.1" y1="137.4" x2="440.5" y2="153.1" stroke="#f4f4f4" stroke-width="1.1" opacity="0.41" stroke-linecap="round"/>
<line x1="394.0" y1="209.0" x2="353.1" y2="220.0" stroke="#f4f4f4" stroke-width="1.4" opacity="0.52" stroke-linecap="round"/>
<line x1="421.0" y1="178.1" x2="457.8" y2="172.5" stroke="#f4f4f4" stroke-width="2.0" opacity="0.37" stroke-linecap="round"/>
<line x1="350.2" y1="121.6" x2="367.3" y2="119.5" stroke="#f4f4f4" stroke-width="1.3" opacity="0.45" stroke-linecap="round"/>
<line x1="406.2" y1="78.8" x2="418.0" y2="68.1" stroke="#f4f4f4" stroke-width="2.6" opacity="0.44" stroke-linecap="round"/>
<line x1="356.7" y1="196.5" x2="388.7" y2="197.5" stroke="#f4f4f4" stroke-width="2.3" opacity="0.43" stroke-linecap="round"/>
<line x1="431.3" y1="105.4" x2="465.7" y2="120.9" stroke="#f4f4f4" stroke-width="1.6" opacity="0.46" stroke-linecap="round"/>
<line x1="432.5" y1="87.4" x2="420.6" y2="83.4" stroke="#f4f4f4" stroke-width="1.9" opacity="0.33" stroke-linecap="round"/>
<line x1="368.2" y1="202.4" x2="402.4" y2="197.1" stroke="#f4f4f4" stroke-width="2.3" opacity="0.31" stroke-linecap="round"/>
<line x1="433.0" y1="132.5" x2="445.9" y2="116.8" stroke="#f4f4f4" stroke-width="1.9" opacity="0.49" stroke-linecap="round"/>
<line x1="384.8" y1="135.4" x2="418.9" y2="149.7" stroke="#f4f4f4" stroke-width="2.3" opacity="0.30" stroke-linecap="round"/>
<line x1="398.9" y1="140.9" x2="402.4" y2="132.8" stroke="#f4f4f4" stroke-width="2.4" opacity="0.30" stroke-linecap="round"/>
<line x1="423.0" y1="218.6" x2="404.9" y2="222.0" stroke="#f4f4f4" stroke-width="1.1" opacity="0.53" stroke-linecap="round"/>
<line x1="415.0" y1="139.7" x2="376.8" y2="152.8" stroke="#f4f4f4" stroke-width="2.3" opacity="0.51" stroke-linecap="round"/>
<line x1="421.6" y1="85.7" x2="437.7" y2="70.5" stroke="#f4f4f4" stroke-width="2.0" opacity="0.41" stroke-linecap="round"/>
<line x1="375.9" y1="110.2" x2="417.1" y2="108.0" stroke="#f4f4f4" stroke-width="2.1" opacity="0.40" stroke-linecap="round"/>
<line x1="417.0" y1="208.5" x2="415.9" y2="206.3" stroke="#f4f4f4" stroke-width="2.4" opacity="0.31" stroke-linecap="round"/>
<line x1="365.9" y1="155.8" x2="344.5" y2="149.5" stroke="#f4f4f4" stroke-width="1.5" opacity="0.49" stroke-linecap="round"/>
<line x1="435.0" y1="74.7" x2="408.7" y2="66.7" stroke="#f4f4f4" stroke-width="2.3" opacity="0.44" stroke-linecap="round"/>
<line x1="352.2" y1="134.1" x2="320.6" y2="133.5" stroke="#f4f4f4" stroke-width="2.1" opacity="0.35" stroke-linecap="round"/>
<line x1="427.8" y1="171.6" x2="467.2" y2="185.4" stroke="#f4f4f4" stroke-width="2.1" opacity="0.32" stroke-linecap="round"/>
</g>
<g clip-path="url(#frontClip)">
<ellipse cx="207.2" cy="228.4" rx="12.8" ry="6.8" transform="rotate(32.3 207.2 228.4)" fill="#3c3c3c" opacity="0.41"/>
<ellipse cx="178.6" cy="228.6" rx="23.5" ry="4.3" transform="rotate(27.7 178.6 228.6)" fill="#3c3c3c" opacity="0.38"/>
<ellipse cx="140.5" cy="206.5" rx="34.1" ry="4.5" transform="rotate(20.5 140.5 206.5)" fill="#686868" opacity="0.40"/>
<ellipse cx="339.1" cy="134.5" rx="25.3" ry="12.3" transform="rotate(26.8 339.1 134.5)" fill="#1f1f1f" opacity="0.53"/>
<ellipse cx="100.8" cy="221.3" rx="31.0" ry="7.4" transform="rotate(16.6 100.8 221.3)" fill="#686868" opacity="0.42"/>
<ellipse cx="168.3" cy="221.8" rx="24.0" ry="13.9" transform="rotate(27.6 168.3 221.8)" fill="#3c3c3c" opacity="0.56"/>
<ellipse cx="222.2" cy="137.9" rx="17.3" ry="11.9" transform="rotate(-34.4 222.2 137.9)" fill="#cfcfcf" opacity="0.61"/>
<ellipse cx="117.2" cy="223.7" rx="24.0" ry="5.0" transform="rotate(33.5 117.2 223.7)" fill="#686868" opacity="0.62"/>
<ellipse cx="205.8" cy="224.3" rx="35.7" ry="13.9" transform="rotate(-17.7 205.8 224.3)" fill="#1f1f1f" opacity="0.70"/>
<ellipse cx="245.9" cy="139.9" rx="36.5" ry="8.5" transform="rotate(23.9 245.9 139.9)" fill="#cfcfcf" opacity="0.43"/>
<ellipse cx="93.0" cy="177.3" rx="35.7" ry="13.1" transform="rotate(-4.2 93.0 177.3)" fill="#3c3c3c" opacity="0.42"/>
<ellipse cx="167.4" cy="148.4" rx="14.4" ry="12.1" transform="rotate(-23.6 167.4 148.4)" fill="#3c3c3c" opacity="0.37"/>
<ellipse cx="136.5" cy="218.9" rx="18.1" ry="8.2" transform="rotate(-4.9 136.5 218.9)" fill="#cfcfcf" opacity="0.48"/>
<ellipse cx="221.1" cy="120.0" rx="28.6" ry="8.0" transform="rotate(17.9 221.1 120.0)" fill="#3c3c3c" opacity="0.63"/>
<ellipse cx="130.2" cy="212.9" rx="12.8" ry="7.6" transform="rotate(10.6 130.2 212.9)" fill="#cfcfcf" opacity="0.49"/>
<ellipse cx="275.7" cy="184.2" rx="35.6" ry="9.2" transform="rotate(6.1 275.7 184.2)" fill="#686868" opacity="0.62"/>
<ellipse cx="330.6" cy="118.8" rx="36.1" ry="9.9" transform="rotate(-32.1 330.6 118.8)" fill="#686868" opacity="0.47"/>
<ellipse cx="284.2" cy="120.7" rx="25.4" ry="13.3" transform="rotate(34.6 284.2 120.7)" fill="#686868" opacity="0.36"/>
<ellipse cx="338.9" cy="137.1" rx="16.8" ry="9.7" transform="rotate(-33.7 338.9 137.1)" fill="#686868" opacity="0.68"/>
<ellipse cx="175.5" cy="193.0" rx="24.6" ry="10.9" transform="rotate(-22.7 175.5 193.0)" fill="#1f1f1f" opacity="0.56"/>
<ellipse cx="152.5" cy="173.1" rx="24.5" ry="13.2" transform="rotate(-1.5 152.5 173.1)" fill="#cfcfcf" opacity="0.61"/>
<ellipse cx="189.4" cy="187.7" rx="35.7" ry="12.7" transform="rotate(30.2 189.4 187.7)" fill="#cfcfcf" opacity="0.36"/>
<ellipse cx="200.3" cy="162.3" rx="30.2" ry="13.3" transform="rotate(-4.6 200.3 162.3)" fill="#eeeeee" opacity="0.68"/>
<ellipse cx="331.9" cy="117.2" rx="28.4" ry="13.0" transform="rotate(27.5 331.9 117.2)" fill="#686868" opacity="0.40"/>
<ellipse cx="234.0" cy="159.6" rx="27.1" ry="7.6" transform="rotate(-20.3 234.0 159.6)" fill="#eeeeee" opacity="0.74"/>
<ellipse cx="284.0" cy="137.0" rx="22.2" ry="9.7" transform="rotate(15.9 284.0 137.0)" fill="#3c3c3c" opacity="0.53"/>
<ellipse cx="112.0" cy="236.8" rx="19.7" ry="4.1" transform="rotate(-1.1 112.0 236.8)" fill="#eeeeee" opacity="0.41"/>
<ellipse cx="147.3" cy="229.4" rx="22.0" ry="4.8" transform="rotate(25.3 147.3 229.4)" fill="#eeeeee" opacity="0.54"/>
<ellipse cx="150.1" cy="212.8" rx="25.6" ry="10.0" transform="rotate(-14.2 150.1 212.8)" fill="#cfcfcf" opacity="0.61"/>
<ellipse cx="149.4" cy="134.9" rx="19.8" ry="8.5" transform="rotate(-10.4 149.4 134.9)" fill="#3c3c3c" opacity="0.59"/>
<ellipse cx="120.3" cy="184.9" rx="15.0" ry="6.0" transform="rotate(9.1 120.3 184.9)" fill="#cfcfcf" opacity="0.48"/>
<ellipse cx="306.1" cy="147.2" rx="22.5" ry="11.0" transform="rotate(-21.0 306.1 147.2)" fill="#cfcfcf" opacity="0.69"/>
<ellipse cx="107.2" cy="117.7" rx="15.0" ry="13.7" transform="rotate(22.1 107.2 117.7)" fill="#686868" opacity="0.76"/>
<ellipse cx="194.9" cy="189.5" rx="17.2" ry="7.3" transform="rotate(18.0 194.9 189.5)" fill="#cfcfcf" opacity="0.41"/>
<line x1="328.8" y1="171.8" x2="362.3" y2="153.1" stroke="#f4f4f4" stroke-width="2.2" opacity="0.38" stroke-linecap="round"/>
<line x1="144.9" y1="191.3" x2="181.5" y2="209.1" stroke="#f4f4f4" stroke-width="1.3" opacity="0.48" stroke-linecap="round"/>
<line x1="211.5" y1="187.1" x2="207.3" y2="182.2" stroke="#f4f4f4" stroke-width="2.1" opacity="0.51" stroke-linecap="round"/>
<line x1="307.7" y1="239.1" x2="319.7" y2="233.5" stroke="#f4f4f4" stroke-width="2.2" opacity="0.33" stroke-linecap="round"/>
<line x1="313.8" y1="149.2" x2="316.0" y2="155.5" stroke="#f4f4f4" stroke-width="1.2" opacity="0.53" stroke-linecap="round"/>
<line x1="303.9" y1="184.7" x2="304.0" y2="189.4" stroke="#f4f4f4" stroke-width="2.6" opacity="0.33" stroke-linecap="round"/>
<line x1="241.5" y1="119.6" x2="272.5" y2="101.7" stroke="#f4f4f4" stroke-width="1.3" opacity="0.33" stroke-linecap="round"/>
<line x1="197.7" y1="188.6" x2="159.2" y2="182.1" stroke="#f4f4f4" stroke-width="1.2" opacity="0.54" stroke-linecap="round"/>
<line x1="241.1" y1="211.1" x2="235.8" y2="214.8" stroke="#f4f4f4" stroke-width="1.5" opacity="0.44" stroke-linecap="round"/>
<line x1="114.0" y1="162.3" x2="110.3" y2="178.3" stroke="#f4f4f4" stroke-width="1.9" opacity="0.48" stroke-linecap="round"/>
<line x1="123.1" y1="227.4" x2="100.0" y2="246.7" stroke="#f4f4f4" stroke-width="2.5" opacity="0.52" stroke-linecap="round"/>
<line x1="232.5" y1="140.0" x2="227.1" y2="159.1" stroke="#f4f4f4" stroke-width="2.4" opacity="0.40" stroke-linecap="round"/>
<line x1="184.1" y1="118.4" x2="216.6" y2="116.9" stroke="#f4f4f4" stroke-width="1.5" opacity="0.33" stroke-linecap="round"/>
<line x1="119.7" y1="179.7" x2="92.4" y2="178.5" stroke="#f4f4f4" stroke-width="2.4" opacity="0.43" stroke-linecap="round"/>
<line x1="246.9" y1="235.5" x2="221.5" y2="218.0" stroke="#f4f4f4" stroke-width="1.5" opacity="0.36" stroke-linecap="round"/>
<line x1="216.8" y1="205.9" x2="179.2" y2="189.5" stroke="#f4f4f4" stroke-width="2.0" opacity="0.43" stroke-linecap="round"/>
<line x1="89.9" y1="218.3" x2="84.0" y2="216.9" stroke="#f4f4f4" stroke-width="1.2" opacity="0.52" stroke-linecap="round"/>
<line x1="248.4" y1="122.4" x2="245.5" y2="144.1" stroke="#f4f4f4" stroke-width="1.5" opacity="0.39" stroke-linecap="round"/>
<line x1="169.0" y1="217.5" x2="182.0" y2="218.1" stroke="#f4f4f4" stroke-width="2.2" opacity="0.46" stroke-linecap="round"/>
<line x1="211.9" y1="128.1" x2="232.9" y2="126.0" stroke="#f4f4f4" stroke-width="1.2" opacity="0.29" stroke-linecap="round"/>
<line x1="235.6" y1="200.4" x2="192.1" y2="197.1" stroke="#f4f4f4" stroke-width="1.3" opacity="0.46" stroke-linecap="round"/>
<line x1="94.7" y1="222.4" x2="113.0" y2="229.3" stroke="#f4f4f4" stroke-width="2.4" opacity="0.40" stroke-linecap="round"/>
<line x1="179.3" y1="137.2" x2="162.5" y2="138.3" stroke="#f4f4f4" stroke-width="2.3" opacity="0.47" stroke-linecap="round"/>
<line x1="159.1" y1="242.5" x2="114.2" y2="261.9" stroke="#f4f4f4" stroke-width="1.8" opacity="0.54" stroke-linecap="round"/>
<line x1="295.9" y1="211.6" x2="294.4" y2="206.7" stroke="#f4f4f4" stroke-width="1.6" opacity="0.35" stroke-linecap="round"/>
<line x1="131.8" y1="236.8" x2="170.5" y2="229.8" stroke="#f4f4f4" stroke-width="1.4" opacity="0.43" stroke-linecap="round"/>
<line x1="233.5" y1="193.4" x2="259.6" y2="183.6" stroke="#f4f4f4" stroke-width="1.9" opacity="0.55" stroke-linecap="round"/>
<line x1="222.4" y1="168.2" x2="229.5" y2="179.3" stroke="#f4f4f4" stroke-width="1.9" opacity="0.33" stroke-linecap="round"/>
<line x1="315.3" y1="231.3" x2="334.8" y2="233.0" stroke="#f4f4f4" stroke-width="2.4" opacity="0.50" stroke-linecap="round"/>
<line x1="137.3" y1="132.3" x2="105.3" y2="145.3" stroke="#f4f4f4" stroke-width="1.9" opacity="0.40" stroke-linecap="round"/>
<line x1="123.5" y1="190.4" x2="103.6" y2="174.8" stroke="#f4f4f4" stroke-width="2.4" opacity="0.50" stroke-linecap="round"/>
<line x1="91.3" y1="168.4" x2="49.2" y2="181.9" stroke="#f4f4f4" stroke-width="1.1" opacity="0.53" stroke-linecap="round"/>
<line x1="98.9" y1="168.6" x2="73.8" y2="172.7" stroke="#f4f4f4" stroke-width="2.2" opacity="0.49" stroke-linecap="round"/>
<line x1="331.9" y1="232.3" x2="349.1" y2="217.6" stroke="#f4f4f4" stroke-width="1.6" opacity="0.47" stroke-linecap="round"/>
<line x1="206.8" y1="243.6" x2="238.7" y2="264.0" stroke="#f4f4f4" stroke-width="1.1" opacity="0.53" stroke-linecap="round"/>
<line x1="132.6" y1="188.0" x2="128.2" y2="171.1" stroke="#f4f4f4" stroke-width="2.5" opacity="0.48" stroke-linecap="round"/>
<line x1="133.8" y1="122.3" x2="152.9" y2="127.3" stroke="#f4f4f4" stroke-width="1.7" opacity="0.44" stroke-linecap="round"/>
<line x1="312.6" y1="175.7" x2="292.6" y2="170.6" stroke="#f4f4f4" stroke-width="1.9" opacity="0.30" stroke-linecap="round"/>
<line x1="294.5" y1="239.3" x2="306.2" y2="245.2" stroke="#f4f4f4" stroke-width="2.6" opacity="0.35" stroke-linecap="round"/>
<line x1="264.7" y1="211.6" x2="220.1" y2="228.6" stroke="#f4f4f4" stroke-width="2.2" opacity="0.38" stroke-linecap="round"/>
<line x1="335.7" y1="233.4" x2="310.3" y2="218.0" stroke="#f4f4f4" stroke-width="2.2" opacity="0.43" stroke-linecap="round"/>
<line x1="339.3" y1="184.1" x2="359.1" y2="170.4" stroke="#f4f4f4" stroke-width="1.6" opacity="0.38" stroke-linecap="round"/>
</g>
<g clip-path="url(#frontClip)">
<ellipse cx="219" cy="178" rx="42" ry="25" fill="url(#tumor)" opacity="0.96"/>
<circle cx="184" cy="187" r="11" fill="#ff84c9" opacity="0.9"/>
<circle cx="257" cy="169" r="9" fill="#a30959" opacity="0.95"/>
</g>
<g clip-path="url(#topClip)" opacity="0.86">
<ellipse cx="240" cy="101" rx="32" ry="11" fill="#db1a78"/>
</g>
<polygon points="88,116 160,74 420,74 348,116" fill="none" stroke="#151515" stroke-width="5" stroke-linejoin="round"/>
<polygon points="348,116 420,74 420,202 348,244" fill="none" stroke="#151515" stroke-width="5" stroke-linejoin="round"/>
<polygon points="88,116 348,116 348,244 88,244" fill="none" stroke="#151515" stroke-width="5" stroke-linejoin="round"/>
</g>
<line x1="392" y1="176" x2="498" y2="176" stroke="#166fb8" stroke-width="8" marker-end="url(#arrow)" stroke-linecap="round"/>
<rect x="520" y="82" width="324" height="216" rx="28" fill="#ffffff" fill-opacity="0.96" stroke="#d7196f" stroke-width="5"/>
<text x="682" y="141" text-anchor="middle" font-family="Arial, Helvetica, sans-serif" font-size="34" font-weight="700" fill="#111">Micrometastasis</text>
<text x="682" y="198" text-anchor="middle" font-family="Arial, Helvetica, sans-serif" font-size="42" font-weight="700" fill="#d7196f">present</text>
<circle cx="738" cy="164" r="34" fill="#d7196f" stroke="#9b0f4d" stroke-width="5"/>
<circle cx="715" cy="147" r="8" fill="#ff9fd1" opacity="0.95"/>
<circle cx="754" cy="182" r="7" fill="#7b0d42" opacity="0.85"/>
<line x1="789" y1="209" x2="823" y2="237" stroke="#9b0f4d" stroke-width="7" stroke-linecap="round"/>
<circle cx="830" cy="243" r="16" fill="#d7196f" stroke="#9b0f4d" stroke-width="4"/>
</svg>
